<svg width="23" height="20" viewBox="0 0 23 20" fill="none" xmlns="http://www.w3.org/2000/svg">
    <path d="M11.0102 0.418419C11.568 0.976311 11.568 1.88083 11.0102 2.43872L4.87745 8.57143H21.4286C22.2176 8.57143 22.8571 9.21102 22.8571 10C22.8571 10.789 22.2176 11.4286 21.4286 11.4286H4.87745L11.0102 17.5613C11.568 18.1192 11.568 19.0237 11.0102 19.5816C10.4523 20.1395 9.54774 20.1395 8.98985 19.5816L0.418419 11.0102C0.15051 10.7422 0 10.3789 0 10C0 9.62112 0.15051 9.25776 0.418419 8.98985L8.98985 0.418419C9.54774 -0.139473 10.4523 -0.139473 11.0102 0.418419Z" fill="white"/>
</svg>
