<svg width="19" height="25" viewBox="0 0 28 25" fill="none" xmlns="http://www.w3.org/2000/svg">
    <path d="M0 2.77778C0 1.24365 1.24365 0 2.77778 0H25C26.5341 0 27.7778 1.24365 27.7778 2.77778V5.55556C27.7778 6.59316 27.2089 7.49788 26.366 7.97483C26.3811 8.09219 26.3889 8.21185 26.3889 8.33333V22.2222C26.3889 23.7563 25.1452 25 23.6111 25H4.16667C2.63254 25 1.38889 23.7563 1.38889 22.2222V8.33333C1.38889 8.21185 1.39669 8.09219 1.41181 7.97483C0.568907 7.49789 0 6.59316 0 5.55556V2.77778ZM25 5.55556V2.77778H2.77778V5.55556H25ZM4.16667 8.33333V22.2222H23.6111V8.33333H4.16667ZM8.33333 12.5C8.33333 11.7329 8.95516 11.1111 9.72222 11.1111H18.0556C18.8226 11.1111 19.4444 11.7329 19.4444 12.5C19.4444 13.2671 18.8226 13.8889 18.0556 13.8889H9.72222C8.95516 13.8889 8.33333 13.2671 8.33333 12.5Z" fill="#0085FF"/>
</svg>
