<svg width="21" height="25" viewBox="0 0 36 25" fill="none" xmlns="http://www.w3.org/2000/svg">
    <path d="M23 12.5C23 15.5376 20.7615 18 18 18C15.2386 18 13 15.5376 13 12.5C13 9.46244 15.2386 7 18 7C20.7615 7 23 9.46244 23 12.5Z" fill="#0085FF"/>
    <path d="M35.8099 11.7014C31.9252 3.99348 25.0256 0 18 0C10.9744 0 4.07482 3.99348 0.190031 11.7014C-0.0633437 12.2041 -0.0633437 12.7959 0.190031 13.2986C4.07482 21.0066 10.9744 25 18 25C25.0256 25 31.9252 21.0066 35.8099 13.2986C36.0634 12.7959 36.0634 12.2041 35.8099 11.7014ZM18 21.4286C12.6562 21.4286 7.19651 18.5343 3.83339 12.5C7.19651 6.46568 12.6562 3.57143 18 3.57143C23.3438 3.57143 28.8034 6.46568 32.1665 12.5C28.8034 18.5343 23.3438 21.4286 18 21.4286Z" fill="#0085FF"/>
</svg>
