<svg width="100%" height="100%" preserveAspectRatio="xMinYMin slice"  viewBox="0 0 13 15" fill="none" xmlns="http://www.w3.org/2000/svg">
    <path fill-rule="evenodd" clip-rule="evenodd" d="M1.43725 1.96309C2.52744 1.73032 3.35619 1.71618 4.04293 1.80538C4.84706 1.90982 5.49292 2.15884 6.21523 2.44029L6.2368 2.44869C6.94606 2.72508 7.73147 3.03114 8.71391 3.15874C9.50723 3.26178 10.4064 3.24671 11.4978 3.04028V9.73272C10.4077 9.96548 9.57891 9.97961 8.89218 9.89042C8.08806 9.78598 7.44219 9.53696 6.71988 9.25551L6.69832 9.24711C5.98905 8.97072 5.20364 8.66466 4.2212 8.53706C3.42788 8.43402 2.52868 8.44909 1.43727 8.65552L1.43725 1.96309ZM12.0422 1.3901C10.6767 1.74479 9.68888 1.78039 8.89218 1.67691C8.08806 1.57247 7.44219 1.32345 6.71988 1.042L6.69831 1.0336C5.98905 0.757213 5.20364 0.451149 4.2212 0.323547C3.22466 0.194114 2.06106 0.25105 0.559249 0.639558C0.239064 0.714885 0 1.01234 0 1.36782V14.0614C0 14.4738 0.321734 14.8081 0.718612 14.8081C1.11549 14.8081 1.43722 14.4738 1.43722 14.0614V10.1766C2.52743 9.94383 3.35619 9.92969 4.04293 10.0189C4.84706 10.1233 5.49292 10.3723 6.21523 10.6538L6.23679 10.6622C6.94605 10.9386 7.73147 11.2447 8.71391 11.3723C9.71373 11.5021 10.8817 11.4444 12.3907 11.0524C12.7106 10.9693 12.9351 10.6706 12.9351 10.328V2.11449C12.9351 1.88456 12.8331 1.66745 12.6587 1.52595C12.4843 1.38445 12.2568 1.33433 12.0422 1.3901Z" fill="white"/>
</svg>
