<svg width="21" height="25" viewBox="0 0 25 25" fill="none" xmlns="http://www.w3.org/2000/svg">
    <path d="M2.67761 2.50015L5.01137 17.6696C5.02836 17.7949 5.06388 17.9142 5.11509 18.0248C5.26925 18.3576 5.56553 18.6112 5.92606 18.7077C6.03619 18.7373 6.15162 18.7521 6.26968 18.75H19.9999C20.5519 18.75 21.0385 18.388 21.1971 17.8592L24.9471 5.35932C25.0607 4.98085 24.9886 4.57099 24.7527 4.25398C24.5168 3.93697 24.145 3.75015 23.7498 3.75015H5.39931L4.98819 1.0779C4.97279 0.966177 4.94263 0.859162 4.89973 0.758892C4.82186 0.576298 4.70263 0.418133 4.55534 0.294159C4.41868 0.178921 4.25698 0.0924509 4.07956 0.0440807C3.96789 0.0135007 3.85073 -0.00181625 3.73084 0.000171661H1.24999C0.55964 0.000171661 0 0.559812 0 1.25016C0 1.94051 0.55964 2.50015 1.24999 2.50015H2.67761ZM7.32237 16.2501L5.78392 6.25013H22.0698L19.0698 16.2501H7.32237Z" fill="#0085FF"/>
    <path d="M9.99993 22.5C9.99993 23.8807 8.88065 25 7.49995 25C6.11925 25 4.99997 23.8807 4.99997 22.5C4.99997 21.1193 6.11925 20 7.49995 20C8.88065 20 9.99993 21.1193 9.99993 22.5Z" fill="#0085FF"/>
    <path d="M21.2499 22.5C21.2499 23.8807 20.1306 25 18.7499 25C17.3692 25 16.2499 23.8807 16.2499 22.5C16.2499 21.1193 17.3692 20 18.7499 20C20.1306 20 21.2499 21.1193 21.2499 22.5Z" fill="#0085FF"/>
</svg>
