<svg width="100%" height="100%" viewBox="0 0 10 10" fill="none" xmlns="http://www.w3.org/2000/svg">
    <path d="M4.66782 0.132942C4.85726 -0.0443142 5.14274 -0.0443142 5.33218 0.132942L9.83218 4.34347C10.0386 4.53658 10.0572 4.86925 9.8737 5.08651C9.69024 5.30376 9.37421 5.32333 9.16781 5.13022L9 4.97319V8.94737C9 9.52872 8.55228 10 8 10H2C1.44772 10 1 9.52872 1 8.94737V4.97319L0.832186 5.13022C0.625795 5.32333 0.309759 5.30376 0.126301 5.08651C-0.0571582 4.86925 -0.0385679 4.53658 0.167823 4.34347L4.66782 0.132942ZM2 4.03752V8.94737H3.5V6.31579C3.5 6.02511 3.72386 5.78947 4 5.78947H6C6.27614 5.78947 6.5 6.02511 6.5 6.31579V8.94737H8V4.03752L5 1.2305L2 4.03752ZM5.5 8.94737V6.84211H4.5V8.94737H5.5Z" fill="white"/>
</svg>
