<svg width="70" height="70" viewBox="0 0 70 70" fill="none" xmlns="http://www.w3.org/2000/svg">
    <path d="M33.0556 70C51.3116 70 66.1111 55.2005 66.1111 36.9444C66.1111 18.6884 51.3116 3.88889 33.0556 3.88889C14.7995 3.88889 0 18.6884 0 36.9444C0 55.2005 14.7995 70 33.0556 70Z" fill="#FFCC4D"/>
    <path d="M34.9981 55.4167C37.1458 55.4167 38.8869 53.2403 38.8869 50.5556C38.8869 47.8708 37.1458 45.6944 34.9981 45.6944C32.8503 45.6944 31.1092 47.8708 31.1092 50.5556C31.1092 53.2403 32.8503 55.4167 34.9981 55.4167Z" fill="#664500"/>
    <path d="M15.7714 41.5781C15.4175 41.5781 15.0578 41.4808 14.7369 41.2786C13.8289 40.7069 13.5567 39.5072 14.1283 38.5972C15.9094 35.7719 21.3247 30.94 29.0811 32.8378C30.1233 33.0925 30.7611 34.1464 30.5064 35.1886C30.2497 36.2308 29.1919 36.8647 28.1556 36.6139C21.1478 34.8989 17.4572 40.6117 17.4203 40.67C17.0489 41.2572 16.4169 41.5781 15.7714 41.5781ZM39.0522 34.3019C38.4883 34.3019 37.9322 34.0589 37.5472 33.5903C36.8667 32.76 36.9872 31.5331 37.8194 30.8525C43.995 25.7892 50.9678 27.8153 53.7931 29.5964C54.7011 30.1681 54.9733 31.3697 54.3997 32.2778C53.83 33.1819 52.6342 33.4581 51.7242 32.8903C51.4558 32.7269 45.7897 29.3456 40.2831 33.8606C39.9214 34.1581 39.4858 34.3019 39.0522 34.3019Z" fill="#664500"/>
    <path d="M25.9506 60.8086C25.8183 60.8086 25.6842 60.7911 25.5519 60.7542C24.7781 60.5344 24.3269 59.7294 24.5467 58.9536C25.3964 55.9592 25.0483 53.0639 23.5939 51.0086C22.6275 49.6436 21.2508 48.8094 19.8158 48.7181C19.0108 48.6694 18.4003 47.9753 18.4508 47.1722C18.5014 46.3692 19.1917 45.7119 19.9967 45.8092C22.3164 45.9531 24.4942 47.2344 25.9719 49.3228C27.9378 52.1014 28.4414 55.9008 27.3506 59.7469C27.1697 60.3906 26.5844 60.8086 25.9506 60.8086ZM47.4114 54.8567C47.1353 54.8567 46.8572 54.7789 46.6103 54.6156C44.3411 53.1183 43.0714 50.4992 43.1258 47.4308C43.1822 44.2517 44.6989 41.3 46.9836 39.9078C47.67 39.4878 48.5664 39.7056 48.9864 40.3958C49.4064 41.0842 49.1886 41.9786 48.4983 42.3986C47.0692 43.2697 46.0794 45.3133 46.0406 47.4814C46.0017 49.5328 46.7969 51.2458 48.2144 52.1811C48.8872 52.6244 49.0719 53.5286 48.6286 54.2014C48.3486 54.6272 47.8858 54.8567 47.4114 54.8567Z" fill="#E2A62D"/>
    <path d="M33.4036 5.28889C33.32 5.19361 33.1897 5.14111 33.0361 5.11194C33.0361 5.11194 2.07278 -0.766111 0.733056 0.416111C-0.604722 1.60028 1.43889 33.0517 1.43889 33.0517C1.44861 33.2092 1.48361 33.3433 1.56917 33.4386C2.74361 34.7686 10.8208 29.5419 19.6117 21.77C28.4044 13.9961 34.5781 6.61889 33.4036 5.28889Z" fill="#DD2E44"/>
    <path d="M0.678611 0.526944C0.649444 0.585278 0.624167 0.665 0.604722 0.766111C0.913889 3.43194 3.90056 25.3672 5.76139 32.2233C8.55361 30.6619 11.3906 28.5406 14.7233 25.8981C11.8922 20.7161 2.25167 0.283889 0.678611 0.526944Z" fill="#EA596E"/>
    <path d="M58.1428 56.8342L37.5842 54.3006C35.3869 54.1022 31.5233 54.0828 31.7217 50.6022C31.9025 47.4464 35.6883 47.9325 38.4864 48.3467L59.1714 51.7961L58.1428 56.8342Z" fill="#3B88C3"/>
    <path d="M59.1694 51.7981L50.96 50.3903C49.9994 50.2172 49.1439 51.6483 49.1011 53.1631C49.0525 54.8469 49.5425 55.6986 50.5128 55.8969L58.5706 56.8925L59.1694 51.7981Z" fill="#88C9F9"/>
    <path d="M67.8961 51.2186L62.7978 55.9067L53.6842 45.9958L58.7825 41.3078C61.4289 38.8733 65.5861 39.0483 68.0206 41.6947L68.2831 41.9806C70.7156 44.6289 70.5425 48.7842 67.8961 51.2186Z" fill="#3B88C3"/>
    <path d="M62.7946 55.9093C64.9844 53.896 64.7196 50.0452 62.2033 47.3084C59.6869 44.5716 55.8719 43.9852 53.6821 45.9985C51.4924 48.0119 51.7572 51.8627 54.2735 54.5995C56.7898 57.3362 60.6049 57.9227 62.7946 55.9093Z" fill="#88C9F9"/>
    <path d="M60.9719 53.9269C62.0668 52.9202 61.7305 50.7731 60.2208 49.1312C58.7112 47.4893 56.5998 46.9743 55.5049 47.981C54.41 48.9877 54.7463 51.1348 56.2559 52.7767C57.7656 54.4186 59.877 54.9336 60.9719 53.9269Z" fill="#226699"/>
    <path d="M4.86111 68.0556C6.47194 68.0556 7.77778 66.7497 7.77778 65.1389C7.77778 63.5281 6.47194 62.2222 4.86111 62.2222C3.25028 62.2222 1.94444 63.5281 1.94444 65.1389C1.94444 66.7497 3.25028 68.0556 4.86111 68.0556Z" fill="#55ACEE"/>
    <path d="M56.3889 7.77778C58.5367 7.77778 60.2778 6.03666 60.2778 3.88889C60.2778 1.74111 58.5367 0 56.3889 0C54.2411 0 52.5 1.74111 52.5 3.88889C52.5 6.03666 54.2411 7.77778 56.3889 7.77778Z" fill="#55ACEE"/>
    <path d="M9.45778 56.8672L4.91167 45.9472L0.801111 57.7014L9.45778 56.8672ZM50.5556 9.72222L42.7778 11.6667L44.7222 3.88889L50.5556 9.72222Z" fill="#EA596E"/>
    <path d="M62.2203 25.2778L70 15.5536L64.1667 11.6667L62.2203 25.2778Z" fill="#77B255"/>
</svg>
