<svg width="20" height="25" viewBox="0 0 20 25" fill="none" xmlns="http://www.w3.org/2000/svg">
    <path d="M8.5 5C9.88075 5 11 3.88075 11 2.5C11 1.11929 9.88075 0 8.5 0C7.11925 0 6 1.11929 6 2.5C6 3.88075 7.11925 5 8.5 5Z" fill="#0085FF"/>
    <path fill-rule="evenodd" clip-rule="evenodd" d="M5.50992 9.96471C5.50992 8.32734 6.89136 7 8.59547 7C9.50835 7 10.3286 7.38092 10.8935 7.98632C11.4243 8.55512 11.7635 9.29672 12.3788 9.78056C13.432 10.6085 15.066 11.4471 17.4113 11.4471C18.02 11.4471 18.5133 11.9211 18.5133 12.5059C18.5133 13.0907 18.02 13.5647 17.4113 13.5647C15.134 13.5647 13.354 12.9261 12.03 12.138C11.8796 12.0485 11.681 12.1503 11.681 12.3203V14.4118C11.681 14.7626 11.9771 15.0471 12.3422 15.0471H14.3504C15.6861 15.0471 16.9071 15.7721 17.5044 16.92L19.846 21.4198C20.2055 22.1106 19.9141 22.9505 19.1951 23.296C18.4603 23.649 17.5672 23.348 17.2229 22.6312L15.4437 18.9274C15.4211 18.8801 15.3703 18.7745 15.3216 18.6732C15.252 18.5281 15.1009 18.4353 14.9346 18.4353C14.7091 18.4353 14.5239 18.6045 14.498 18.8199C14.0812 22.2986 11.0055 25 7.27309 25C3.25632 25 0 21.8713 0 18.0118C0 14.7365 2.34502 11.9875 5.50992 11.2303V9.96471ZM12.2108 19.1186C12.2985 18.7559 11.9903 18.4353 11.6027 18.4353H7.71388C6.49668 18.4353 5.50992 17.4872 5.50992 16.3176V14.3572C5.50992 13.9145 5.04929 13.6113 4.65504 13.8403C3.18605 14.6932 2.20397 16.2423 2.20397 18.0118C2.20397 20.7017 4.47352 22.8824 7.27309 22.8824C9.67638 22.8824 11.6891 21.2753 12.2108 19.1186Z" fill="#0085FF"/>
</svg>
