<svg width="100%" height="100%" preserveAspectRatio="xMinYMin slice"  viewBox="0 0 16 15" fill="none" xmlns="http://www.w3.org/2000/svg">
    <path d="M8 1.5347C6.11534 -0.204278 3.217 -0.141193 1.40589 1.72395C-0.468629 3.65439 -0.468629 6.78425 1.40589 8.71468L6.86863 14.3404C7.49347 14.9839 8.50653 14.9839 9.13137 14.3404L14.5941 8.71468C16.4686 6.78425 16.4686 3.65439 14.5941 1.72395C12.783 -0.141193 9.88466 -0.204278 8 1.5347ZM7.06274 2.88907L7.43431 3.27173C7.74673 3.59347 8.25327 3.59347 8.56569 3.27173L8.93726 2.88907C10.1869 1.60211 12.2131 1.60211 13.4627 2.88907C14.7124 4.17603 14.7124 6.2626 13.4627 7.54956L8 13.1753L2.53726 7.54956C1.28758 6.2626 1.28758 4.17603 2.53726 2.88907C3.78694 1.60211 5.81306 1.60211 7.06274 2.88907Z" fill="white"/>
</svg>
