<svg width="20" height="25" viewBox="0 0 19 25" fill="none" xmlns="http://www.w3.org/2000/svg">
    <path d="M9.375 0C10.2379 0 10.9375 0.699555 10.9375 1.5625V23.4375C10.9375 24.3004 10.2379 25 9.375 25C8.51206 25 7.8125 24.3004 7.8125 23.4375V1.5625C7.8125 0.699555 8.51206 0 9.375 0ZM17.1875 6.25C18.0504 6.25 18.75 6.94956 18.75 7.8125V23.4375C18.75 24.3004 18.0504 25 17.1875 25C16.3246 25 15.625 24.3004 15.625 23.4375V7.8125C15.625 6.94956 16.3246 6.25 17.1875 6.25ZM1.5625 12.5C2.42544 12.5 3.125 13.1996 3.125 14.0625V23.4375C3.125 24.3004 2.42544 25 1.5625 25C0.699555 25 0 24.3004 0 23.4375V14.0625C0 13.1996 0.699555 12.5 1.5625 12.5Z" fill="#0085FF"/>
</svg>
