<svg width="100%" height="100%" viewBox="0 0 12 10" fill="none" xmlns="http://www.w3.org/2000/svg">
    <path d="M3.71321 0.0285093C3.82724 -0.00950309 3.95053 -0.00950309 4.06457 0.0285093L7.22222 1.08106L9.64864 0.272255C10.3681 0.0324287 11.1111 0.567951 11.1111 1.32635V7.93291C11.1111 8.41117 10.8051 8.83577 10.3514 8.98701L7.3979 9.97149C7.28387 10.0095 7.16058 10.0095 7.04654 9.97149L3.88889 8.91894L1.46248 9.72775C0.742996 9.96757 0 9.43205 0 8.67365V2.06709C0 1.58883 0.306033 1.16423 0.759747 1.013L3.71321 0.0285093ZM4.44444 7.93291L6.66667 8.67365V2.06709L4.44444 1.32635V7.93291ZM3.33333 1.32635L1.11111 2.06709V8.67365L3.33333 7.93291V1.32635ZM7.77778 2.06709V8.67365L10 7.93291V1.32635L7.77778 2.06709Z" fill="white"/>
</svg>
