<svg width="21" height="25" viewBox="0 0 23 25" fill="none" xmlns="http://www.w3.org/2000/svg">
    <path d="M2.5 5C2.5 5.03192 2.51278 5.21197 2.86511 5.52435C3.21598 5.83543 3.79502 6.17268 4.61784 6.48124C6.25424 7.09489 8.59878 7.5 11.25 7.5C13.9012 7.5 16.2458 7.09489 17.8822 6.48124C18.705 6.17268 19.284 5.83543 19.6349 5.52435C19.9872 5.21197 20 5.03192 20 5C20 4.96808 19.9872 4.78803 19.6349 4.47565C19.284 4.16457 18.705 3.82732 17.8822 3.51876C16.2458 2.90511 13.9012 2.5 11.25 2.5C8.59878 2.5 6.25424 2.90511 4.61784 3.51876C3.79502 3.82732 3.21598 4.16457 2.86511 4.47565C2.51278 4.78803 2.5 4.96808 2.5 5ZM0 5C0 3.99638 0.546866 3.18992 1.20659 2.60501C1.86777 2.0188 2.7532 1.548 3.74003 1.17794C5.72291 0.434358 8.37837 0 11.25 0C14.1216 0 16.7771 0.434358 18.76 1.17794C19.7468 1.548 20.6322 2.0188 21.2934 2.60501C21.9531 3.18992 22.5 3.99638 22.5 5V10V15V20C22.5 21.0036 21.9531 21.8101 21.2934 22.395C20.6322 22.9812 19.7468 23.452 18.76 23.8221C16.7771 24.5656 14.1216 25 11.25 25C8.37837 25 5.72291 24.5656 3.74003 23.8221C2.7532 23.452 1.86777 22.9812 1.20659 22.395C0.546866 21.8101 0 21.0036 0 20V15V10V5ZM2.5 10C2.5 10.0319 2.51278 10.212 2.86511 10.5243C3.21598 10.8354 3.79502 11.1727 4.61784 11.4812C6.25424 12.0949 8.59878 12.5 11.25 12.5C13.9012 12.5 16.2458 12.0949 17.8822 11.4812C18.705 11.1727 19.284 10.8354 19.6349 10.5243C19.9872 10.212 20 10.0319 20 10V8.27024C19.6136 8.47476 19.1967 8.65828 18.76 8.82206C16.7771 9.56564 14.1216 10 11.25 10C8.37837 10 5.72291 9.56564 3.74003 8.82206C3.30327 8.65828 2.88638 8.47476 2.5 8.27024V10ZM2.5 13.2702V15C2.5 15.0319 2.51278 15.212 2.86511 15.5243C3.21598 15.8354 3.79502 16.1727 4.61784 16.4812C6.25424 17.0949 8.59878 17.5 11.25 17.5C13.9012 17.5 16.2458 17.0949 17.8822 16.4812C18.705 16.1727 19.284 15.8354 19.6349 15.5243C19.9872 15.212 20 15.0319 20 15V13.2702C19.6136 13.4748 19.1967 13.6583 18.76 13.8221C16.7771 14.5656 14.1216 15 11.25 15C8.37837 15 5.72291 14.5656 3.74003 13.8221C3.30327 13.6583 2.88638 13.4748 2.5 13.2702ZM2.5 18.2702V20C2.5 20.0319 2.51278 20.212 2.86511 20.5243C3.21598 20.8354 3.79502 21.1727 4.61784 21.4812C6.25424 22.0949 8.59878 22.5 11.25 22.5C13.9012 22.5 16.2458 22.0949 17.8822 21.4812C18.705 21.1727 19.284 20.8354 19.6349 20.5243C19.9872 20.212 20 20.0319 20 20V18.2702C19.6136 18.4748 19.1967 18.6583 18.76 18.8221C16.7771 19.5656 14.1216 20 11.25 20C8.37837 20 5.72291 19.5656 3.74003 18.8221C3.30327 18.6583 2.88638 18.4748 2.5 18.2702Z" fill="#0085FF"/>
</svg>
