<svg viewBox="0 0 9 13" fill="none" xmlns="http://www.w3.org/2000/svg">
    <path d="M1.38133 4.207L3.25092 2.849C3.46092 2.69558 3.71583 2.61683 3.976 2.625C4.29305 2.63291 4.59975 2.7394 4.85348 2.92967C5.10721 3.11993 5.29535 3.38453 5.39175 3.68667C5.50025 4.02675 5.59942 4.25658 5.68925 4.37617C5.96068 4.7383 6.31278 5.03219 6.71761 5.2345C7.12244 5.43681 7.56885 5.54198 8.02142 5.54167L8.02142 6.70833C7.41901 6.70895 6.82396 6.57602 6.27909 6.31912C5.73421 6.06221 5.25306 5.68772 4.87025 5.22258L4.46367 7.52967L5.66592 8.53883L6.96267 12.1018L5.866 12.5008L4.676 9.23183L2.6985 7.57225C2.53622 7.44121 2.41203 7.26905 2.33888 7.07371C2.26573 6.87837 2.24629 6.66699 2.28258 6.46158L2.5795 4.77867L2.18458 5.06567L0.943833 6.77367L4.01341e-10 6.08767L1.37142 4.2L1.38133 4.207ZM4.81308 2.33333C4.50366 2.33333 4.20692 2.21042 3.98813 1.99162C3.76933 1.77283 3.64642 1.47609 3.64642 1.16667C3.64642 0.857247 3.76933 0.560501 3.98813 0.341709C4.20692 0.122916 4.50366 -2.96912e-10 4.81308 -3.17311e-10C5.1225 -3.3771e-10 5.41925 0.122916 5.63804 0.341709C5.85683 0.560501 5.97975 0.857247 5.97975 1.16667C5.97975 1.47609 5.85683 1.77283 5.63804 1.99162C5.41925 2.21042 5.1225 2.33333 4.81308 2.33333ZM3.07942 10.0222L1.20458 12.2564L0.310917 11.5068L2.04692 9.43833L2.48208 8.16667L3.52683 9.04167L3.07942 10.0222Z" fill="white"/>
</svg>
