<svg width="21" height="25" viewBox="0 0 25 25" fill="none" xmlns="http://www.w3.org/2000/svg">
    <path fill-rule="evenodd" clip-rule="evenodd" d="M1.38889 0C1.02053 0 0.667264 0.146329 0.406796 0.406796C0.146329 0.667264 0 1.02053 0 1.38889V11.1111H11.1111V0H1.38889ZM2.77778 8.33333V2.77778H8.33333V8.33333H2.77778ZM0 13.8889V23.6111C0 23.9795 0.146329 24.3327 0.406796 24.5932C0.667264 24.8537 1.02053 25 1.38889 25H11.1111V13.8889H0ZM2.77778 22.2222V16.6667H8.33333V22.2222H2.77778ZM13.8889 0H23.6111C23.9795 0 24.3327 0.146329 24.5932 0.406796C24.8537 0.667264 25 1.02053 25 1.38889V11.1111H13.8889V0ZM16.6667 2.77778V8.33333H22.2222V2.77778H16.6667Z" fill="#0085FF"/>
    <path d="M16.75 16.75H19.5V22.25H16.75V25H14V19.5H16.75V16.75ZM16.75 16.75H14V14H16.75V16.75ZM19.5 22.25H22.25V19.5H25V23.625C25 23.9897 24.8551 24.3394 24.5973 24.5973C24.3394 24.8551 23.9897 25 23.625 25H19.5V22.25ZM19.5 16.75V14H25V16.75H19.5Z" fill="#0085FF"/>
</svg>
