<svg width="100%" height="100%" viewBox="0 0 13 14" fill="none" xmlns="http://www.w3.org/2000/svg">
    <path d="M5.2 1.33662C3.04609 1.33662 1.3 3.13189 1.3 5.34648C1.3 7.56106 3.04609 9.35634 5.2 9.35634C7.35391 9.35634 9.1 7.56106 9.1 5.34648C9.1 3.13189 7.35391 1.33662 5.2 1.33662ZM0 5.34648C0 2.3937 2.32812 0 5.2 0C8.07188 0 10.4 2.3937 10.4 5.34648C10.4 6.58199 9.9924 7.71962 9.30791 8.62497L12.8096 12.2253C13.0635 12.4863 13.0635 12.9095 12.8096 13.1705C12.5558 13.4314 12.1442 13.4314 11.8904 13.1705L8.38867 9.5701C7.50812 10.2739 6.40166 10.693 5.2 10.693C2.32812 10.693 0 8.29926 0 5.34648Z" fill="#8A96A8"/>
</svg>
