<svg width="100%" height="100%" viewBox="0 0 10 10" fill="none" xmlns="http://www.w3.org/2000/svg">
    <path d="M5 1C2.79086 1 1 2.79086 1 5C1 7.20914 2.79086 9 5 9C7.20914 9 9 7.20914 9 5C9 2.79086 7.20914 1 5 1ZM0 5C0 2.23858 2.23858 0 5 0C7.76142 0 10 2.23858 10 5C10 7.76142 7.76142 10 5 10C2.23858 10 0 7.76142 0 5ZM5 2C5.27614 2 5.5 2.22386 5.5 2.5V4.79289L6.85355 6.14645C7.04882 6.34171 7.04882 6.65829 6.85355 6.85355C6.65829 7.04882 6.34171 7.04882 6.14645 6.85355L4.64645 5.35355C4.55268 5.25979 4.5 5.13261 4.5 5V2.5C4.5 2.22386 4.72386 2 5 2Z" fill="white"/>
</svg>
