<svg width="20" height="25" viewBox="0 0 25 25" fill="none" xmlns="http://www.w3.org/2000/svg">
    <path d="M12.5 2.5C6.97715 2.5 2.5 6.97715 2.5 12.5C2.5 18.0228 6.97715 22.5 12.5 22.5C18.0228 22.5 22.5 18.0228 22.5 12.5C22.5 6.97715 18.0228 2.5 12.5 2.5ZM0 12.5C0 5.59644 5.59644 0 12.5 0C19.4036 0 25 5.59644 25 12.5C25 19.4036 19.4036 25 12.5 25C5.59644 25 0 19.4036 0 12.5ZM12.5 5C13.1904 5 13.75 5.55964 13.75 6.25V11.9822L17.1339 15.3661C17.622 15.8543 17.622 16.6457 17.1339 17.1339C16.6457 17.622 15.8543 17.622 15.3661 17.1339L11.6161 13.3839C11.3817 13.1495 11.25 12.8315 11.25 12.5V6.25C11.25 5.55964 11.8096 5 12.5 5Z" fill="#0085FF"/>
</svg>
