<svg width="20" height="25" viewBox="0 0 19 21" fill="none" xmlns="http://www.w3.org/2000/svg">
    <path d="M9.5 2.16683C7.19881 2.16683 5.33333 4.03231 5.33333 6.3335C5.33333 8.63468 7.19881 10.5002 9.5 10.5002C11.8012 10.5002 13.6667 8.63468 13.6667 6.3335C13.6667 4.03231 11.8012 2.16683 9.5 2.16683ZM3.25 6.3335C3.25 2.88172 6.04822 0.0834961 9.5 0.0834961C12.9518 0.0834961 15.75 2.88172 15.75 6.3335C15.75 9.78528 12.9518 12.5835 9.5 12.5835C6.04822 12.5835 3.25 9.78528 3.25 6.3335ZM5.33333 16.7502C3.60744 16.7502 2.20833 18.1493 2.20833 19.8752C2.20833 20.4505 1.74196 20.9168 1.16667 20.9168C0.59137 20.9168 0.125 20.4505 0.125 19.8752C0.125 16.9987 2.45685 14.6668 5.33333 14.6668H13.6667C16.5431 14.6668 18.875 16.9987 18.875 19.8752C18.875 20.4505 18.4086 20.9168 17.8333 20.9168C17.258 20.9168 16.7917 20.4505 16.7917 19.8752C16.7917 18.1493 15.3926 16.7502 13.6667 16.7502H5.33333Z" fill="#0085FF"/>
</svg>
